<?xml version="1.0" standalone="no"?><!DOCTYPE svg PUBLIC "-//W3C//DTD SVG 1.1//EN" "http://www.w3.org/Graphics/SVG/1.1/DTD/svg11.dtd"><svg t="1589514882961" class="icon" viewBox="0 0 1024 1024" version="1.1" xmlns="http://www.w3.org/2000/svg" p-id="5549" width="32" height="32" xmlns:xlink="http://www.w3.org/1999/xlink"><defs><style type="text/css"></style></defs><path d="M294.001207 698.70453a150.449155 150.449155 0 0 1-146.738753-118.122918 148.873505 148.873505 0 0 1 10.165483-94.335686 150.245845 150.245845 0 0 1 30.801415-248.037797A150.398328 150.398328 0 0 1 425.339254 58.279072a150.398328 150.398328 0 0 1 125.340411 179.929057 150.3475 150.3475 0 0 1 58.858149 180.437332 150.3475 150.3475 0 0 1-72.479897 254.747015A149.890053 149.890053 0 0 1 410.345166 643.658437 150.652465 150.652465 0 0 1 294.001207 698.70453z m0 0" fill="#49B148" p-id="5550"></path><path d="M453.599298 994.418443c-25.108744 0-61.39952-23.939714-92.455072-60.992901-26.887704-32.021273-87.118193-119.749395-65.567369-241.836851 28.9208-164.070903 21.195033-335.460954 21.195033-337.239913l-1.016548-20.991723L323.430282 353.078092a1761.474972 1761.474972 0 0 0 160.512984 297.340391 299.881762 299.881762 0 0 1 31.86879 276.043703c-14.841606 37.358152-35.985811 63.17848-55.249402 67.397156a33.190303 33.190303 0 0 1-7.014184 0.711583z m0 0" fill="#F9F8EC" p-id="5551"></path><path d="M692.793123 698.70453a150.652465 150.652465 0 0 1-116.293131-54.893611A150.3475 150.3475 0 0 1 377.307344 418.84877a150.3475 150.3475 0 0 1 58.858149-180.437331A150.398328 150.398328 0 0 1 561.505904 58.279072a150.398328 150.398328 0 0 1 237.313211 179.573266A150.398328 150.398328 0 0 1 877.957404 404.718748a148.873505 148.873505 0 0 1-48.540183 81.323868 148.924333 148.924333 0 0 1 10.165483 94.335686A150.449155 150.449155 0 0 1 692.843951 698.70453z m0 0" fill="#49B148" p-id="5552"></path><path d="M533.24586 994.418443a32.732857 32.732857 0 0 1-7.065011-0.711584c-19.212764-4.218676-40.407797-30.039004-55.249402-67.397155a299.881762 299.881762 0 0 1 31.86879-276.043703A1762.593175 1762.593175 0 0 0 663.364049 353.078092l7.776594-19.517728-1.016548 20.991724c0 1.728132-7.776595 173.169011 21.195033 337.189085 21.499997 121.985801-38.730492 209.815578-65.567368 241.836852-31.055552 37.00236-67.346328 60.992901-92.455072 60.9929z m0 0" fill="#EAE8DC" p-id="5553"></path><path d="M533.24586 994.418443a32.732857 32.732857 0 0 1-7.065011-0.711584c-19.212764-4.218676-40.407797-30.039004-55.249402-67.397155a299.881762 299.881762 0 0 1 31.86879-276.043703A1762.593175 1762.593175 0 0 0 663.364049 353.078092l7.776594-19.517728-1.016548 20.991724c0 1.728132-7.776595 173.169011 21.195033 337.189085 21.499997 121.985801-38.730492 209.815578-65.567368 241.836852-31.055552 37.00236-67.346328 60.992901-92.455072 60.9929z m0 0" fill="#F9F8EC" p-id="5554"></path><path d="M692.843951 713.952755h-1.372341a165.290761 165.290761 0 0 1-116.903059-49.658387 165.646553 165.646553 0 0 1-214.695011-249.054344 166.408964 166.408964 0 0 1 59.569733-183.741114 165.646553 165.646553 0 0 1 134.946793-187.248205 164.630004 164.630004 0 0 1 148.111094-40.306142 165.69738 165.69738 0 0 1 116.29313 227.910139 165.595725 165.595725 0 0 1 28.971628 258.457417 165.595725 165.595725 0 0 1-154.921967 223.640636z m-116.293131-85.542543a15.248225 15.248225 0 0 1 11.791961 5.540188 134.946793 134.946793 0 0 0 104.50117 49.505904h1.219858a135.099275 135.099275 0 0 0 121.731664-190.856951 15.248225 15.248225 0 0 1 3.913711-17.942079 135.048448 135.048448 0 0 0-27.700942-222.929052 15.248225 15.248225 0 0 1-6.50591-20.940895 135.20093 135.20093 0 0 0-89.557909-197.057897 134.286036 134.286036 0 0 0-123.713934 35.579192 15.248225 15.248225 0 0 1-8.488178 4.218676A135.150102 135.150102 0 0 0 451.007099 235.310967 15.248225 15.248225 0 0 1 444.399535 251.423258a135.607549 135.607549 0 0 0-52.860514 161.986979 15.248225 15.248225 0 0 1-3.608746 16.468083 135.099275 135.099275 0 0 0 179.014163 201.988156 15.248225 15.248225 0 0 1 9.606382-3.456264z" fill="#010101" p-id="5555"></path><path d="M294.001207 713.952755a165.646553 165.646553 0 0 1-154.972795-223.640636 165.544898 165.544898 0 0 1 28.971628-258.254107 165.646553 165.646553 0 0 1 264.30257-187.603997 165.646553 165.646553 0 0 1 135.099275 187.044895 166.408964 166.408964 0 0 1 59.62056 183.537804A165.69738 165.69738 0 0 1 540.310871 688.539046a165.036624 165.036624 0 0 1-127.932609-24.39716 165.290761 165.290761 0 0 1-118.377055 49.810869zM320.177327 30.476475a135.505894 135.505894 0 0 0-29.276592 3.202127 135.251757 135.251757 0 0 0-89.507082 197.057897 15.248225 15.248225 0 0 1-6.505909 20.940896 134.99762 134.99762 0 0 0-27.75177 222.878225 15.248225 15.248225 0 0 1 3.913711 17.89125 135.099275 135.099275 0 0 0 227.452692 141.50353 15.248225 15.248225 0 0 1 21.347516-2.185579 134.641828 134.641828 0 0 0 113.904242 26.938531 135.099275 135.099275 0 0 0 65.160748-228.723377 15.248225 15.248225 0 0 1-3.608746-16.468083A135.607549 135.607549 0 0 0 542.49645 251.423258a15.248225 15.248225 0 0 1-6.658391-15.959809A135.150102 135.150102 0 0 0 423.102847 73.527298a15.248225 15.248225 0 0 1-8.488178-4.218676 134.184382 134.184382 0 0 0-94.437342-38.832147z" fill="#010101" p-id="5556"></path><path d="M453.650125 1009.666668c-29.886521 0-69.786044-25.413709-104.145378-66.380607-28.260044-33.64775-91.489351-125.848685-68.921978-254.137086 26.125292-148.314404 22.059099-303.388854 20.991724-332.97041v-0.914894l-1.016549-20.940896A15.248225 15.248225 0 0 1 329.885364 327.664384l7.725767 19.517728A1742.211381 1742.211381 0 0 0 496.751775 641.676168a315.587434 315.587434 0 0 1 33.44444 290.275379c-16.92553 42.593376-41.627655 71.158384-66.075642 76.647746a48.591011 48.591011 0 0 1-10.470448 1.067375zM332.884182 412.444516c0 66.075642-3.608747 175.659554-22.313237 281.838028-20.330967 115.784856 36.748223 198.989339 62.263587 229.384134 32.021273 38.120563 64.296683 55.50354 80.815593 55.50354a18.29787 18.29787 0 0 0 3.761229-0.406619c11.131204-2.439716 29.784867-21.703307 44.219853-58.095738a284.633537 284.633537 0 0 0-30.49645-261.812026 1772.657004 1772.657004 0 0 1-138.250575-246.411319z" fill="#010101" p-id="5557"></path><path d="M533.296688 1009.666668H532.330967a47.676117 47.676117 0 0 1-9.352245-1.067375c-24.549643-5.387706-49.251767-34.05437-66.075642-76.647746a315.536606 315.536606 0 0 1 33.44444-290.275379A1739.974974 1739.974974 0 0 0 649.234027 347.232939l7.776594-19.568555a15.248225 15.248225 0 0 1 29.378248 6.404254l-1.016549 20.991724c-0.304965 7.014184-7.217493 173.982249 20.940896 333.834476 22.618201 128.390056-40.661934 220.641818-68.921978 254.137086-34.308507 41.221035-74.258857 66.634744-104.09455 66.634744z m0-30.49645h0.711584c16.671393-0.457447 48.540183-17.840423 80.104009-55.50354 25.413709-30.49645 82.64538-113.650105 62.263586-229.384134-18.856972-106.737576-22.313236-216.931417-22.364063-281.990511a1778.197192 1778.197192 0 0 1-138.504712 246.563802 284.633537 284.633537 0 0 0-30.496451 261.812026c14.485814 36.443258 33.139476 55.910159 44.321508 58.146565a24.092196 24.092196 0 0 0 3.659574 0.355792z" fill="#010101" p-id="5558"></path><path d="M601.303772 714.562684A149.381779 149.381779 0 0 1 483.892438 658.042596a150.3475 150.3475 0 0 1-243.310846-118.07209 148.873505 148.873505 0 0 1 29.937349-90.015356 148.873505 148.873505 0 0 1-29.937349-89.964529 150.398328 150.398328 0 0 1 113.243486-145.722205 150.3475 150.3475 0 0 1 270.300204-124.425517 150.398328 150.398328 0 0 1 83.814411 202.598085 150.3475 150.3475 0 0 1 18.755317 188.823855 150.3475 150.3475 0 0 1-125.391238 233.297845z m0 0" fill="#49B148" p-id="5559"></path><path d="M600.846325 729.810909A163.562629 163.562629 0 0 1 481.50355 678.373563a165.595725 165.595725 0 0 1-229.536617-228.723378A165.595725 165.595725 0 0 1 335.628862 203.848795a165.748208 165.748208 0 0 1 162.647735-197.616998h0.254137a164.426695 164.426695 0 0 1 135.760032 71.158384 165.646553 165.646553 0 0 1 91.489351 211.797848 166.408964 166.408964 0 0 1 18.856972 192.07681 165.595725 165.595725 0 0 1-143.333317 248.54607zM483.892438 642.794371a15.248225 15.248225 0 0 1 11.944443 5.743498 133.320315 133.320315 0 0 0 105.009444 50.827417h0.457447a135.099275 135.099275 0 0 0 112.684384-209.612269 15.248225 15.248225 0 0 1 0-16.823875 135.607549 135.607549 0 0 0-16.874702-169.712746 15.248225 15.248225 0 0 1-3.100473-17.027185A135.150102 135.150102 0 0 0 618.737576 104.023748a15.248225 15.248225 0 0 1-7.420803-5.946808A134.082727 134.082727 0 0 0 498.378252 36.728247a135.251757 135.251757 0 0 0-129.914878 173.219838 15.248225 15.248225 0 0 1-10.877068 19.060282 135.048448 135.048448 0 0 0-74.868785 211.74702 15.248225 15.248225 0 0 1 0 18.348698 135.099275 135.099275 0 0 0 108.211571 215.965696 135.963341 135.963341 0 0 0 83.509447-28.920801 15.248225 15.248225 0 0 1 9.453899-3.354609z" fill="#010101" p-id="5560"></path><path d="M497.209222 1001.330972c-20.07683 0-46.761224-21.24586-69.684389-55.50354a296.933772 296.933772 0 0 1-26.786049-274.9255c63.483444-154.057902 92.709209-323.109891 93.014173-324.838023l3.557919-20.737586 3.405437 20.737586a1763.711378 1763.711378 0 0 0 93.065001 324.888851 300.186726 300.186726 0 0 1-28.056734 276.450322c-22.567373 33.291958-48.794321 53.978717-68.464531 53.978717z m0 0" fill="#F9F8EC" p-id="5561"></path><path d="M497.209222 1016.579197c-25.413709 0-56.265951-23.278957-82.391244-62.263586a312.436134 312.436134 0 0 1-28.209216-289.258832c63.127652-153.244663 91.794316-319.907764 92.09928-321.585068l3.557919-20.788414a15.248225 15.248225 0 0 1 15.248225-12.706854 15.248225 15.248225 0 0 1 15.248225 12.757681l3.405437 20.737587a1734.841405 1734.841405 0 0 0 92.150108 321.686723 315.689088 315.689088 0 0 1-30.242314 290.732827c-25.413709 38.018908-55.910159 60.687936-80.86642 60.687936z m0-610.640591c-14.028367 63.585099-41.017726 170.42433-82.340416 270.706825a281.533064 281.533064 0 0 0 25.413708 260.642995c22.414891 33.495268 45.287229 48.743493 57.028362 48.743493s33.85106-14.790778 55.910159-47.269498a284.633537 284.633537 0 0 0 26.531912-262.218645A1782.110903 1782.110903 0 0 1 497.158394 405.938606z" fill="#010101" p-id="5562"></path></svg>