<?xml version="1.0" standalone="no"?><!DOCTYPE svg PUBLIC "-//W3C//DTD SVG 1.1//EN" "http://www.w3.org/Graphics/SVG/1.1/DTD/svg11.dtd"><svg t="1589516896943" class="icon" viewBox="0 0 1024 1024" version="1.1" xmlns="http://www.w3.org/2000/svg" p-id="6531" xmlns:xlink="http://www.w3.org/1999/xlink" width="32" height="32"><defs><style type="text/css"></style></defs><path d="M825.685 497.095h-666.51c-8.078 0-14.677 6.599-14.677 14.677s6.599 14.677 14.677 14.677h666.51c8.078 0 14.677-6.599 14.677-14.677s-6.599-14.677-14.677-14.677z" fill="#161616" p-id="6532"></path><path d="M863.346 511.773c0 0 0 0 0 0 0 8.106 6.572 14.677 14.677 14.677 8.106 0 14.677-6.572 14.677-14.677 0 0 0 0 0 0 0 0 0 0 0 0 0-8.106-6.572-14.677-14.677-14.677-8.106 0-14.677 6.572-14.677 14.677s0 0 0 0z" fill="#161616" p-id="6533"></path><path d="M578.787 145.067c0 0 0 0 0 0 0 8.106 6.572 14.677 14.677 14.677 8.106 0 14.677-6.572 14.677-14.677 0 0 0 0 0 0 0 0 0 0 0 0 0-8.106-6.572-14.677-14.677-14.677-8.106 0-14.677 6.572-14.677 14.677s0 0 0 0z" fill="#161616" p-id="6534"></path><path d="M537.373 130.389h-320.398c-48.014 0-87.154 39.026-87.154 87.154v176.925c0 8.078 6.599 14.677 14.677 14.677s14.677-6.599 14.677-14.677v-177.038c0-31.858 25.941-57.799 57.799-57.799h320.398c8.078 0 14.677-6.599 14.677-14.677s-6.599-14.563-14.677-14.563zM805.547 130.389h-155.875c-8.078 0-14.677 6.599-14.677 14.677s6.599 14.677 14.677 14.677h155.875c31.858 0 57.799 25.941 57.799 57.799v176.925c0 8.078 6.599 14.677 14.677 14.677s14.677-6.599 14.677-14.677v-177.038c0-48.014-39.139-87.040-87.154-87.040zM892.701 629.077c0-8.078-6.599-14.677-14.677-14.677s-14.677 6.599-14.677 14.677v176.925c0 31.858-25.941 57.799-57.799 57.799h-588.573c-31.858 0-57.799-25.941-57.799-57.799v-176.925c0-8.078-6.599-14.677-14.677-14.677s-14.677 6.599-14.677 14.677v176.925c0 48.014 39.026 87.154 87.154 87.154h588.573c48.014 0 87.154-39.026 87.154-87.154v-176.925z" fill="#161616" p-id="6535"></path></svg>