<?xml version="1.0" standalone="no"?><!DOCTYPE svg PUBLIC "-//W3C//DTD SVG 1.1//EN" "http://www.w3.org/Graphics/SVG/1.1/DTD/svg11.dtd"><svg t="1589519603405" class="icon" viewBox="0 0 1024 1024" version="1.1" xmlns="http://www.w3.org/2000/svg" p-id="8073" width="16" height="16" xmlns:xlink="http://www.w3.org/1999/xlink"><defs><style type="text/css"></style></defs><path d="M875.9 885.9c-5.7 5.7-14.9 5.7-20.6 0L630 660.5c-5.7-5.7-5.7-14.9 0-20.6 5.7-5.7 14.9-5.7 20.6 0L876 865.3c5.6 5.7 5.6 14.9-0.1 20.6z" fill="#2c2c2c" p-id="8074"></path><path d="M750.2 406.9c0-189.4-154.1-343.5-343.4-343.5-189.4 0-343.4 154.1-343.4 343.5s154.1 343.5 343.4 343.5c8.7 0 14.7-0.6 23.3-1.3v-0.1c8-0.2 14.4-6.7 14.4-14.7 0-8.2-6.6-14.8-14.8-14.8-0.4 0-0.7 0.2-1 0.2v-0.2c-5.8 0.3-16 1.6-21.8 1.6-173.3 0-314.3-141-314.3-314.3s141-314.3 314.3-314.3 314.3 141 314.3 314.3c0 126.1-74.9 234.8-182.3 284.8l0.1 0.2c-6 1.9-10.5 7.3-10.5 13.9 0 8.2 6.6 14.8 14.8 14.8 1.4 0 2.7-0.4 4-0.8l0.1 0.3c0.3-0.1 0.6-0.3 0.9-0.5 0.7-0.2 1.3-0.6 1.9-0.9 117.8-54.4 200-173.5 200-311.7z" fill="#2c2c2c" p-id="8075"></path></svg>