<?xml version="1.0" standalone="no"?><!DOCTYPE svg PUBLIC "-//W3C//DTD SVG 1.1//EN" "http://www.w3.org/Graphics/SVG/1.1/DTD/svg11.dtd"><svg t="1590110032455" class="icon" viewBox="0 0 1024 1024" version="1.1" xmlns="http://www.w3.org/2000/svg" p-id="2846" width="16" height="16" xmlns:xlink="http://www.w3.org/1999/xlink"><defs><style type="text/css"></style></defs><path d="M502.81931 793.6l-5.649655-1.765517c-4.06069-1.235862-100.104828-30.013793-197.737931-89.158621-57.908966-35.133793-104.165517-73.622069-137.710345-114.405517-42.725517-52.25931-64.441379-108.57931-64.441379-167.371035 0-62.675862 22.775172-121.82069 64.264828-166.311724 42.372414-45.726897 99.928276-70.973793 161.544827-71.150345h0.706207c66.56 0 130.118621 29.66069 173.02069 80.154483 43.255172-51.023448 106.284138-80.154483 173.020689-80.154483 125.175172 0 226.868966 101.693793 226.868966 226.868966 0 54.554483-21.186207 108.932414-62.675862 161.368276-32.485517 40.783448-77.329655 80.684138-133.649655 118.642758-94.808276 63.911724-188.204138 99.575172-192.088276 100.987587l-5.473104 2.295172zM323.972414 218.924138h-0.529655c-106.990345 0.353103-190.675862 89.158621-190.675862 202.151724 0 115.111724 100.281379 200.209655 184.496551 251.233104 80.684138 48.904828 162.427586 76.976552 184.32 84.03862 46.08-18.714483 360.165517-153.246897 360.165518-345.864827 0-105.577931-85.98069-191.558621-191.558621-191.558621-56.673103 0-110.168276 24.893793-146.714483 68.325517l-1.05931 1.059311-27.365518 27.365517-16.595862-18.537931c-36.016552-48.904828-93.748966-78.212414-154.482758-78.212414z" fill="#2c2c2c" p-id="2847"></path><path d="M806.311724 442.968276c-9.710345 0-17.655172-7.944828-17.655172-17.655173 0-57.732414-32.132414-109.815172-83.862069-135.591724-8.651034-4.413793-12.182069-15.006897-7.944828-23.657931 4.413793-8.651034 15.006897-12.182069 23.657931-7.944827 63.735172 31.955862 103.282759 96.044138 103.282759 167.194482 0.176552 9.710345-7.768276 17.655172-17.478621 17.655173z" fill="#2c2c2c" p-id="2848"></path></svg>