<?xml version="1.0" standalone="no"?><!DOCTYPE svg PUBLIC "-//W3C//DTD SVG 1.1//EN" "http://www.w3.org/Graphics/SVG/1.1/DTD/svg11.dtd"><svg t="1590128569426" class="icon" viewBox="0 0 1024 1024" version="1.1" xmlns="http://www.w3.org/2000/svg" p-id="4985" width="32" height="32" xmlns:xlink="http://www.w3.org/1999/xlink"><defs><style type="text/css"></style></defs><path d="M284.444444 568.888889c-31.288889 0-56.888889-25.6-56.888888-56.888889s25.6-56.888889 56.888888-56.888889 56.888889 25.6 56.888889 56.888889-25.6 56.888889-56.888889 56.888889z m227.555556 0c-31.288889 0-56.888889-25.6-56.888889-56.888889s25.6-56.888889 56.888889-56.888889 56.888889 25.6 56.888889 56.888889-25.6 56.888889-56.888889 56.888889z m227.555556 0c-31.288889 0-56.888889-25.6-56.888889-56.888889s25.6-56.888889 56.888889-56.888889 56.888889 25.6 56.888888 56.888889-25.6 56.888889-56.888888 56.888889z" fill="##707070" p-id="4986"></path><path d="M512 0C230.4 0 0 230.4 0 512s230.4 512 512 512 512-230.4 512-512S793.6 0 512 0z m0 967.111111C261.688889 967.111111 56.888889 762.311111 56.888889 512S261.688889 56.888889 512 56.888889s455.111111 204.8 455.111111 455.111111-204.8 455.111111-455.111111 455.111111z" fill="##707070" p-id="4987"></path></svg>
