<?xml version="1.0" standalone="no"?><!DOCTYPE svg PUBLIC "-//W3C//DTD SVG 1.1//EN" "http://www.w3.org/Graphics/SVG/1.1/DTD/svg11.dtd"><svg t="1590492578341" class="icon" viewBox="0 0 1024 1024" version="1.1" xmlns="http://www.w3.org/2000/svg" p-id="2719" data-spm-anchor-id="a313x.7781069.0.i3" width="32" height="32" xmlns:xlink="http://www.w3.org/1999/xlink"><defs><style type="text/css"></style></defs><path d="M512 512m-512 0a512 512 0 1 0 1024 0 512 512 0 1 0-1024 0Z" fill="#707070" p-id="2720" data-spm-anchor-id="a313x.7781069.0.i4" class="selected"></path><path d="M512 512m-467.47648 0a467.47648 467.47648 0 1 0 934.95296 0 467.47648 467.47648 0 1 0-934.95296 0Z" fill="#FFFFFF" p-id="2721"></path><path d="M811.29472 302.55104c-16.50688-16.4864-43.25376-16.4864-59.76064 0L422.07232 631.99232l-149.54496-149.87264c-16.54784-16.50688-43.33568-16.46592-59.84256 0.08192-16.50688 16.54784-16.46592 43.33568 0.08192 59.84256l179.0976 179.42528c16.75264 16.4864 43.6224 16.4864 60.39552 0l359.0144-359.15776c16.50688-16.52736 16.50688-43.25376 0.02048-59.76064z" fill="#707070" p-id="2722" data-spm-anchor-id="a313x.7781069.0.i2" class=""></path></svg>