<?xml version="1.0" standalone="no"?><!DOCTYPE svg PUBLIC "-//W3C//DTD SVG 1.1//EN" "http://www.w3.org/Graphics/SVG/1.1/DTD/svg11.dtd"><svg t="1590492633752" class="icon" viewBox="0 0 1024 1024" version="1.1" xmlns="http://www.w3.org/2000/svg" p-id="3504" width="32" height="32" xmlns:xlink="http://www.w3.org/1999/xlink"><defs><style type="text/css"></style></defs><path d="M512 1024C228.894118 1024 0 795.105882 0 512S228.894118 0 512 0 1024 228.894118 1024 512 795.105882 1024 512 1024zM512 54.211765C259.011765 54.211765 48.188235 259.011765 48.188235 518.023529s204.8 457.788235 463.811765 457.788236 457.788235-204.8 457.788235-457.788236S771.011765 54.211765 512 54.211765z" fill="#00AA00" p-id="3505" data-spm-anchor-id="a313x.7781069.0.i11"></path><path d="M445.741176 656.564706l301.176471-331.294118c18.070588-18.070588 42.164706-18.070588 54.211765-6.023529s18.070588 42.164706 6.023529 54.211765l-325.270588 361.411764s0 6.023529-6.023529 6.02353c-18.070588 18.070588-42.164706 18.070588-54.211765 6.023529l-204.8-180.705882c-18.070588-18.070588-24.094118-42.164706-6.02353-60.235294 18.070588-18.070588 48.188235-18.070588 60.235295-6.02353l174.682352 156.611765z" fill="#00AA00" p-id="3506"></path></svg>