<?xml version="1.0" standalone="no"?><!DOCTYPE svg PUBLIC "-//W3C//DTD SVG 1.1//EN" "http://www.w3.org/Graphics/SVG/1.1/DTD/svg11.dtd"><svg t="1590550915690" class="icon" viewBox="0 0 1024 1024" version="1.1" xmlns="http://www.w3.org/2000/svg" p-id="2260" width="32" height="32" xmlns:xlink="http://www.w3.org/1999/xlink"><defs><style type="text/css"></style></defs><path d="M782.5 652.7c-53.3 0-102.4-23.1-135.9-62.9-33.2 39.4-81.7 62.6-134.2 63-52.9-0.3-101.6-23.4-134.9-62.8-33.5 39.8-82.6 63-135.6 63.2-31.6 0-59.7-6.4-83.6-19.1-7.5-4-14.6-8.5-21.4-13.4l0.2 220.6c0 45.4 19.9 65.2 65.5 65.2l607.9-0.4c45.6-0.1 65.4-20 65.4-65.5V627.7c-2.8 1.7-5.5 3.4-8.4 4.9-24.1 13.1-52.8 19.9-85 20.1z m0 0" fill="#46C01B" p-id="2261"></path><path d="M951.4 375.4c-0.1-0.5-0.2-0.9-0.2-1.3-0.4-1.9-0.9-3.7-1.6-5.4l-75.7-188c-13.1-39-50.8-62.9-94.9-63H247.4c-44.7 0-79.3 23.7-91.9 61.1L74 370.6c-0.4 1.1-0.8 2.8-1.2 4.5-5.8 18.1-8.8 36.7-8.8 55.4 0.1 57.1 27.4 109.9 72.8 142.9 6.7 4.9 13.9 9.4 21.4 13.4 23.9 12.7 52 19.1 83.6 19.1 53-0.2 102.1-23.4 135.6-63.2 33.3 39.4 82 62.5 134.9 62.8 52.5-0.4 101.1-23.6 134.2-63 33.5 39.8 82.6 62.9 135.9 62.9 32.3-0.2 60.9-6.9 85-20.1 2.9-1.6 5.7-3.2 8.4-4.9 52.2-32 84.2-88.9 84.2-150.6 0.1-18.7-3-37.4-8.6-54.4zM764.8 304H247.9c-17.8 0-32.3-14.4-32.3-32.2 0-17.8 14.5-32.2 32.3-32.2h516.9c17.8 0 32.3 14.4 32.3 32.2 0 17.7-14.4 32.2-32.3 32.2z m0 0" fill="#46C01B" p-id="2262"></path></svg>