<?xml version="1.0" standalone="no"?><!DOCTYPE svg PUBLIC "-//W3C//DTD SVG 1.1//EN" "http://www.w3.org/Graphics/SVG/1.1/DTD/svg11.dtd"><svg t="1590748185662" class="icon" viewBox="0 0 1024 1024" version="1.1" xmlns="http://www.w3.org/2000/svg" p-id="2179" width="64" height="64" xmlns:xlink="http://www.w3.org/1999/xlink"><defs><style type="text/css"></style></defs><path d="M532.998638 98.458558a478.448671 478.448671 0 0 0-478.448671 478.448671c0 10.744691 0.929829 21.231095 1.601372 31.820814 4.700802-103.056046 71.648489-268.513948 252.44857-268.513948 57.391111 189.271856 187.153912 212.620895 333.860264 176.512536-102.07456-44.683449-66.741058-125.113656-42.513848-149.340867 55.273168 117.365081 213.189124 233.335418 404.010695 127.799828-38.846189-225.225243-234.678505-396.727034-470.958382-396.727034z" fill="#E9443D" p-id="2180"></path><path d="M512.025829 1024C229.66776 1024 0 794.33224 0 512.025829S229.66776 0 512.025829 0c282.306412 0 511.974171 229.66776 511.974171 512.025829s-229.66776 511.974171-511.974171 511.974171z m0-956.845684C266.705948 67.154316 67.154316 266.705948 67.154316 512.025829s199.551632 444.871513 444.871513 444.871512c245.268224 0 444.819856-199.551632 444.819855-444.871512S757.294052 67.154316 512.025829 67.154316z" fill="#4C4948" p-id="2181"></path><path d="M266.344347 596.381981a123.357312 46.801392 90 1 0 93.602785 0 123.357312 46.801392 90 1 0-93.602785 0Z" fill="#4C4948" p-id="2182"></path><path d="M659.765323 596.381981a123.357312 46.801392 90 1 0 93.602785 0 123.357312 46.801392 90 1 0-93.602785 0Z" fill="#4C4948" p-id="2183"></path></svg>