<?xml version="1.0" standalone="no"?><!DOCTYPE svg PUBLIC "-//W3C//DTD SVG 1.1//EN" "http://www.w3.org/Graphics/SVG/1.1/DTD/svg11.dtd"><svg t="1590131377792" class="icon" viewBox="0 0 1024 1024" version="1.1" xmlns="http://www.w3.org/2000/svg" p-id="11295" xmlns:xlink="http://www.w3.org/1999/xlink" width="48" height="48"><defs><style type="text/css"></style></defs><path d="M162.676364 558.545455h418.909091a46.545455 46.545455 0 0 1 46.545454 46.545454v93.090909a46.545455 46.545455 0 0 1-46.545454 46.545455h-418.909091a46.545455 46.545455 0 0 1-46.545455-46.545455v-93.090909a46.545455 46.545455 0 0 1 46.545455-46.545454z" fill="#E5E5E5" p-id="11296"></path><path d="M1000.727273 349.090909a146.618182 146.618182 0 0 1 0 23.272727v186.181819a46.545455 46.545455 0 0 1-46.545455 46.545454h-46.545454v325.818182a23.272727 23.272727 0 0 1-46.545455 0V605.090909H628.363636v302.545455a46.545455 46.545455 0 0 1-46.545454 46.545454H162.909091a46.545455 46.545455 0 0 1-46.545455-46.545454V605.090909H69.818182a46.545455 46.545455 0 0 1-46.545455-46.545454v-186.181819a146.618182 146.618182 0 0 1 0-23.272727 31.278545 31.278545 0 0 1 2.722909-12.660364L163.909818 88.087273a22.667636 22.667636 0 0 1 16.663273-17.128728 20.270545 20.270545 0 0 1 3.095273-0.628363A18.618182 18.618182 0 0 1 186.181818 69.818182h651.636364a19.246545 19.246545 0 0 1 2.513454 0.512 20.270545 20.270545 0 0 1 3.095273 0.628363 22.667636 22.667636 0 0 1 16.663273 17.128728l137.914182 248.343272A13.265455 13.265455 0 0 1 1000.727273 349.090909zM162.909091 907.636364h418.909091V605.090909H162.909091v302.545455zM823.156364 116.363636H200.843636l-116.363636 209.454546h854.993455z m133.143272 256H67.700364v186.181819h888.599272v-186.181819z" fill="#1C1C1C" p-id="11297"></path></svg>