<?xml version="1.0" standalone="no"?><!DOCTYPE svg PUBLIC "-//W3C//DTD SVG 1.1//EN" "http://www.w3.org/Graphics/SVG/1.1/DTD/svg11.dtd"><svg t="1589176235878" class="icon" viewBox="0 0 1024 1024" version="1.1" xmlns="http://www.w3.org/2000/svg" p-id="7074" xmlns:xlink="http://www.w3.org/1999/xlink" width="200" height="200"><defs><style type="text/css"></style></defs><path d="M514.56 567.808c-144.384 0-262.144-117.76-262.144-262.144s117.76-262.144 262.144-262.144 262.144 117.76 262.144 262.144-117.248 262.144-262.144 262.144z m0-456.192c-107.008 0-194.048 87.04-194.048 194.048s87.04 194.048 194.048 194.048 194.048-87.04 194.048-194.048-87.04-194.048-194.048-194.048z m401.408 875.008H113.664c-18.944 0-34.304-15.36-34.304-34.304 0-190.464 195.072-345.6 435.2-345.6s435.2 155.136 435.2 345.6c0.512 18.944-14.848 34.304-33.792 34.304zM150.528 918.528h728.576c-22.528-136.704-177.152-243.2-364.032-243.2s-342.016 106.496-364.544 243.2z" p-id="7075" fill="#00AA00"></path></svg>
