<?xml version="1.0" standalone="no"?><!DOCTYPE svg PUBLIC "-//W3C//DTD SVG 1.1//EN" "http://www.w3.org/Graphics/SVG/1.1/DTD/svg11.dtd"><svg t="1590392715419" class="icon" viewBox="0 0 1024 1024" version="1.1" xmlns="http://www.w3.org/2000/svg" p-id="2288" width="48" height="48" xmlns:xlink="http://www.w3.org/1999/xlink"><defs><style type="text/css"></style></defs><path d="M514.970652 510.976696zM82.908102 510.976696c-0.007163 154.365432 82.342215 297.007891 216.025647 374.192653 133.683431 77.184762 298.390375 77.184762 432.073806 0C864.690986 807.984586 947.039341 665.342127 947.032178 510.976696c0.007163-154.365432-82.341192-297.007891-216.024623-374.192653-133.683431-77.183739-298.390375-77.183739-432.073806 0C165.250318 213.968805 82.900939 356.610241 82.908102 510.976696" fill="#F1C345" p-id="2289"></path><path d="M715.489147 794.138258c-20.20821-7.876372-43.966263-14.544222-70.323508-19.708838-14.755023-2.892881-30.311292-5.321182-46.554199-7.205085-23.775449 6.390534-52.585554 10.135828-83.639765 10.135828-31.090027 0-59.929808-3.75348-83.721629-10.15834-17.500548 2.025119-34.199848 4.683663-49.960779 7.872279 1.39988 0.47993 2.831483 0.880042 4.252852 1.309829-1.421369-0.429788-2.852972-0.828876-4.252852-1.309829-24.868338 5.033633-47.35954 11.410865-66.63552 18.887124-0.374529-1.088796-46.776256 24.76703-73.444585 51.358613 74.513939 61.054419 169.782532 97.71736 273.629484 97.71736 103.968725 0 199.343742-36.742759 273.895543-97.925091-26.650933-26.431946-72.854139-52.107671-73.245042-50.97385z" fill="#4D846C" p-id="2290"></path><path d="M704.543886 453.647104c-5.48798-2.072191-11.577663-1.077539-17.589575 2.260479 0.532118-35.585402-4.735852-67.789807-15.235975-93.344782H357.956909c-10.915585 26.568046-16.214254 60.300244-15.177647 97.572051-6.030331-3.364624-12.141504-4.371555-17.648927-2.291178-15.610505 5.896279-20.433337 33.942999-10.772322 62.644634 9.659991 28.693448 30.138354 47.176368 45.746812 41.293392 14.047919 45.57592 34.899788 84.85545 58.845105 114.23349 4.20578 5.1595 8.504681 10.021218 12.882376 14.549338v76.57078l-0.584307 0.069585c23.790798 6.403837 52.629556 10.15834 83.720606 10.15834 31.054211 0 59.864316-3.745293 83.640789-10.136851-0.256849-0.028653-0.509605-0.062422-0.767479-0.091074V690.597274c4.406348-4.55575 8.734924-9.447144 12.968334-14.642459 23.895175-29.323804 44.706112-68.510213 58.738682-113.969477 0.417508-1.349738 37.151057 0 45.766255-45.695647 9.662038-28.699588 4.839205-56.747332-10.7713-62.642587z" fill="#EDD4A0" p-id="2291"></path><path d="M671.719359 364.042499s-1.895159 39.925235 15.235975 97.36739c0 0 74.832186-217.462366-65.815853-217.462365 0 0-364.24409-126.645145-278.360219 221.869736 0 0 2.409881 9.707063 6.68013 17.627438 57.701051-85.349706 248.839941-57.700028 322.259967-119.402199z" fill="#5C4847" p-id="2292"></path><path d="M353.71429 867.170452h78.102666v13.357189h-78.102666v-13.357189zM514.56133 777.350953s17.89145 30.128121 62.373458 38.94491c0 0 22.900524-30.438182 21.268354-49.080737l-83.641812 10.135827zM514.521421 777.36528s-17.89145 30.127098-62.373458 38.943886c0 0-22.900524-30.438182-21.268353-49.080737l83.641811 10.136851z" fill="#B8C8C2" p-id="2293"></path><path d="M514.562354 799.635448z m-7.866139 0a7.867162 7.867162 0 1 0 15.734324 0 7.871256 7.871256 0 0 0-3.932558-6.815206 7.867162 7.867162 0 1 0-11.801766 6.815206M514.521421 829.823944z m-7.868185 0a7.868186 7.868186 0 1 0 15.735348 0 7.868186 7.868186 0 0 0-15.735348 0M514.521421 860.545581z m-7.868185 0a7.868186 7.868186 0 1 0 15.735348 0 7.868186 7.868186 0 0 0-15.735348 0" fill="#55A47D" p-id="2294"></path></svg>