<?xml version="1.0" standalone="no"?><!DOCTYPE svg PUBLIC "-//W3C//DTD SVG 1.1//EN" "http://www.w3.org/Graphics/SVG/1.1/DTD/svg11.dtd"><svg t="1590473410442" class="icon" viewBox="0 0 1024 1024" version="1.1" xmlns="http://www.w3.org/2000/svg" p-id="19777" xmlns:xlink="http://www.w3.org/1999/xlink" width="48" height="48"><defs><style type="text/css"></style></defs><path d="M511.486288 511.486288m-511.486288 0a511.486288 511.486288 0 1 0 1022.972575 0 511.486288 511.486288 0 1 0-1022.972575 0Z" fill="#000000" opacity=".6" p-id="19778"></path><path d="M270.667059 351.16008c0 11.954658 9.690899 21.646698 21.644415 21.646698 11.955799 0 21.646698-9.69204 21.646698-21.646698s-9.690899-21.645556-21.645557-21.645556c-11.954658 0-21.645556 9.69204-21.645556 21.645556zM364.465231 329.514524h375.197253c14.430751 0 21.645556 7.214805 21.645556 21.645556 0 14.430751-7.214805 21.646698-21.644415 21.646698H364.464089c-14.42961 0-21.644415-7.214805-21.644415-21.646698 0-14.42961 7.214805-21.645556 21.644415-21.645556zM270.667059 509.897204c0 11.954658 9.690899 21.646698 21.644415 21.646698 11.955799 0 21.646698-9.69204 21.646698-21.646698s-9.690899-21.645556-21.645557-21.645556c-11.954658 0-21.645556 9.69204-21.645556 21.645556zM364.465231 488.251648h375.197253c14.430751 0 21.645556 7.214805 21.645556 21.645556 0 14.430751-7.214805 21.646698-21.644415 21.646698H364.464089c-14.42961 0-21.644415-7.214805-21.644415-21.646698 0-14.42961 7.214805-21.645556 21.644415-21.645556zM270.667059 668.634328c0 11.954658 9.690899 21.646698 21.644415 21.646698 11.955799 0 21.646698-9.69204 21.646698-21.646698s-9.690899-21.645556-21.645557-21.645557c-11.954658 0-21.645556 9.69204-21.645556 21.645557zM364.465231 646.988771h375.197253c14.430751 0 21.645556 7.214805 21.645556 21.645557 0 14.430751-7.214805 21.646698-21.644415 21.646698H364.464089c-14.42961 0-21.644415-7.214805-21.644415-21.646698 0-14.42961 7.214805-21.645556 21.644415-21.645557z" fill="#FFFFFF" p-id="19779"></path></svg>