<?xml version="1.0" standalone="no"?><!DOCTYPE svg PUBLIC "-//W3C//DTD SVG 1.1//EN" "http://www.w3.org/Graphics/SVG/1.1/DTD/svg11.dtd"><svg t="1590201160143" class="icon" viewBox="0 0 1114 1024" version="1.1" xmlns="http://www.w3.org/2000/svg" p-id="2786" xmlns:xlink="http://www.w3.org/1999/xlink" width="34.8125" height="32"><defs><style type="text/css"></style></defs><path d="M557.181481 1024a27.696155 27.696155 0 0 1-19.188187-7.964907L98.837261 576.698038A337.784484 337.784484 0 0 1 557.181481 81.24459a337.784484 337.784484 0 0 1 458.52524 495.453448L576.369667 1016.035093a26.972073 26.972073 0 0 1-19.188186 7.964907zM337.603464 54.453538A283.297277 283.297277 0 0 0 137.213633 538.321666l419.967848 420.148868L977.511369 538.321666A283.478297 283.478297 0 0 0 576.369667 137.542004a27.334114 27.334114 0 0 1-38.376373 0A281.849112 281.849112 0 0 0 337.603464 54.453538z" fill="#00AA00" p-id="2787"></path><path d="M187.175325 262.989297a37.109228 37.109228 0 0 1-11.58532-1.991227 36.204125 36.204125 0 0 1-22.627578-45.979239A149.885077 149.885077 0 0 1 271.530936 108.759725a36.204125 36.204125 0 0 1 7.783887 72.40825 78.38193 78.38193 0 0 0-58.469662 57.564558 36.204125 36.204125 0 0 1-33.669836 24.256764z" fill="#00AA00" p-id="2788"></path></svg>