<?xml version="1.0" standalone="no"?><!DOCTYPE svg PUBLIC "-//W3C//DTD SVG 1.1//EN" "http://www.w3.org/Graphics/SVG/1.1/DTD/svg11.dtd"><svg t="1590473278913" class="icon" viewBox="0 0 1024 1024" version="1.1" xmlns="http://www.w3.org/2000/svg" p-id="12687" width="48" height="48" xmlns:xlink="http://www.w3.org/1999/xlink"><defs><style type="text/css"></style></defs><path d="M512 512m-512 0a512 512 0 1 0 1024 0 512 512 0 1 0-1024 0Z" fill="#000000" opacity=".5" p-id="12688"></path><path d="M638.122667 241.169067a102.4 102.4 0 1 1-104.516267 159.812266L413.354667 466.432a102.007467 102.007467 0 0 1 11.0592 71.7312 102.4512 102.4512 0 0 1-9.762134 26.88l134.741334 68.334933a102.434133 102.434133 0 0 1 187.101866 75.451734 102.4 102.4 0 0 1-200.328533-42.581334l0.273067-1.2288-143.086934-72.567466a102.4 102.4 0 1 1-1.860266-152.814934l1.450666-0.9216 125.627734-68.437333a102.4 102.4 0 0 1 119.534933-129.109333z m-68.5568 432.1792a68.266667 68.266667 0 1 0 133.546666 28.381866 68.266667 68.266667 0 0 0-133.546666-28.381866z m-312.081067-170.666667a68.266667 68.266667 0 1 0 133.563733 28.381867 68.266667 68.266667 0 0 0-133.563733-28.381867zM550.058667 327.133867a68.266667 68.266667 0 1 0 133.546666 28.398933 68.266667 68.266667 0 0 0-133.546666-28.398933z" fill="#FFFFFF" p-id="12689"></path></svg>